<?xml version="1.0" standalone="no"?>
<!DOCTYPE svg PUBLIC "-//W3C//DTD SVG 20010904//EN"
 "http://www.w3.org/TR/2001/REC-SVG-20010904/DTD/svg10.dtd">
<svg version="1.0" xmlns="http://www.w3.org/2000/svg"
 width="869.000000pt" height="835.000000pt" viewBox="0 0 869.000000 835.000000"
 preserveAspectRatio="xMidYMid meet">

<g transform="translate(0.000000,835.000000) scale(0.100000,-0.100000)"
fill="#000000" stroke="none">
<path d="M4226 8325 c7 -17 -26 -21 -41 -6 -13 12 -90 -15 -182 -63 -37 -20
-163 -107 -279 -194 -513 -384 -597 -447 -729 -547 -77 -58 -216 -163 -310
-235 -188 -144 -601 -452 -886 -660 -101 -74 -256 -189 -344 -256 -88 -66
-168 -123 -177 -127 -23 -8 -421 -305 -576 -428 -67 -54 -150 -117 -183 -140
-34 -23 -64 -50 -67 -61 -2 -10 -21 -26 -41 -34 -69 -29 -131 -75 -131 -98 0
-53 -10 -63 -61 -70 -44 -6 -53 -12 -84 -54 -19 -26 -48 -74 -64 -107 -31 -61
-71 -212 -71 -264 0 -49 39 -184 72 -250 38 -75 158 -208 197 -217 14 -4 65
-20 112 -35 47 -16 118 -32 157 -35 l72 -7 0 -1751 c1 -1423 3 -1765 14 -1826
67 -374 325 -680 666 -790 100 -32 192 -42 450 -46 505 -7 5031 -3 5305 5 318
9 328 11 515 104 94 47 116 63 216 162 154 153 218 269 275 500 33 131 39 500
36 2133 l-2 1507 72 6 c77 7 179 37 257 76 114 57 221 202 252 340 11 52 15
105 12 181 -5 124 -29 194 -112 320 -50 78 -98 120 -311 274 -66 48 -126 97
-134 109 -11 19 -14 178 -17 896 -3 903 -4 936 -45 1030 -66 154 -181 236
-371 264 -111 16 -1044 2 -1122 -17 -79 -19 -148 -58 -217 -122 -97 -89 -128
-211 -129 -494 0 -105 -4 -158 -11 -158 -27 0 -164 97 -519 369 -726 557 -937
711 -1031 755 -118 55 -210 76 -338 76 -85 0 -99 -2 -95 -15z m230 -478 c16
-8 141 -98 276 -199 222 -164 519 -385 938 -695 80 -59 195 -143 256 -188 61
-44 225 -166 365 -271 140 -105 310 -232 379 -282 69 -50 204 -149 300 -219
96 -71 231 -169 300 -218 150 -108 703 -520 815 -608 44 -34 90 -77 102 -96
29 -42 30 -95 3 -139 -33 -54 -66 -62 -270 -62 -199 0 -235 -8 -267 -56 -17
-27 -18 -91 -23 -1350 -3 -727 -8 -1325 -12 -1329 -6 -6 -388 -8 -394 -2 -1 1
-4 58 -6 127 -3 109 -7 132 -30 182 -32 68 -98 142 -152 170 -57 29 -151 34
-195 11 -61 -32 -76 -63 -75 -156 0 -68 5 -93 29 -145 34 -75 99 -138 179
-173 31 -13 56 -27 56 -30 0 -3 -25 -9 -57 -12 -75 -8 -141 -43 -178 -96 l-30
-43 -5 -341 -5 -342 -2412 -3 -2411 -2 -4 327 c-4 289 -6 333 -22 371 -32 74
-118 132 -198 132 -47 0 -41 19 16 44 65 29 135 97 167 163 30 62 38 191 16
245 -25 59 -68 80 -154 75 -63 -3 -80 -9 -128 -41 -60 -40 -127 -129 -145
-195 -5 -20 -10 -89 -10 -153 l0 -118 -37 0 c-21 -1 -109 -3 -195 -7 l-158 -5
4 98 c2 55 2 102 -1 107 -7 11 -13 536 -17 1553 -3 616 -8 908 -15 922 -6 11
-24 32 -42 46 l-31 26 -201 0 c-200 0 -203 0 -239 25 -41 28 -65 85 -54 128
11 44 51 82 224 208 317 233 2309 1723 2727 2041 83 62 215 160 295 217 80 58
201 148 270 201 150 116 197 147 247 166 48 18 167 13 209 -9z m3176 -1090 c2
-378 1 -687 -1 -687 -3 0 -14 8 -25 19 -12 10 -167 128 -346 261 -179 134
-380 286 -447 338 l-123 95 0 327 c0 179 3 330 7 334 4 3 215 5 470 4 l463 -3
2 -688z m-6147 -5279 l0 -183 -205 0 -205 0 -3 179 c-1 103 1 182 7 185 5 3
98 5 208 4 l198 -2 0 -183z m6140 2 l0 -185 -212 -3 -213 -2 0 183 c0 101 3
187 7 191 4 3 99 5 212 4 l206 -3 0 -185z m-1587 -799 c2 -125 -1 -166 -10
-173 -17 -11 -4487 -9 -4554 2 -78 13 -175 63 -241 124 -58 54 -133 165 -133
198 0 17 110 18 2468 16 l2467 -3 3 -164z"/>
<path d="M4225 6741 c-185 -115 -302 -209 -471 -376 -182 -181 -256 -283 -348
-476 -83 -176 -126 -331 -143 -519 -6 -68 -11 -84 -23 -82 -176 40 -232 47
-415 46 -157 0 -207 -4 -289 -22 -271 -60 -473 -161 -693 -345 -134 -113 -266
-268 -361 -425 l-32 -52 17 -68 c80 -323 385 -754 692 -978 80 -58 224 -141
284 -162 26 -9 47 -20 47 -23 0 -4 -19 -38 -42 -75 -111 -183 -197 -422 -222
-621 -33 -255 -29 -401 15 -618 39 -190 120 -395 179 -453 65 -65 225 -95 510
-96 391 -2 664 73 932 255 157 107 372 338 449 483 13 25 27 46 30 46 3 0 25
-33 49 -73 101 -170 276 -356 433 -461 150 -100 357 -186 527 -220 326 -65
783 -37 911 56 110 80 219 503 219 851 0 278 -71 536 -223 816 -59 107 -67
131 -44 131 34 0 262 127 357 198 272 205 529 564 637 892 l36 109 -24 46
c-78 149 -319 409 -494 535 -189 134 -401 223 -629 262 -155 26 -375 21 -536
-12 -58 -12 -112 -22 -120 -23 -12 -2 -16 17 -22 93 -16 195 -61 355 -153 542
-112 226 -247 393 -462 573 -134 111 -428 315 -453 314 -8 0 -64 -31 -125 -68z
m304 -534 c222 -194 397 -458 456 -686 56 -218 32 -500 -59 -680 -50 -99 -125
-211 -142 -211 -8 0 -36 11 -62 24 -198 99 -522 96 -756 -8 -32 -14 -62 -26
-67 -26 -14 0 -109 147 -141 217 -16 36 -41 108 -56 161 -24 87 -27 114 -27
257 0 143 3 171 27 260 35 128 128 314 213 427 74 99 229 247 355 342 l85 63
40 -28 c22 -16 82 -66 134 -112z m-1536 -1293 c208 -33 389 -119 531 -253 44
-42 156 -182 156 -195 0 -3 -27 -34 -61 -68 -163 -165 -255 -374 -272 -618
l-2 -35 -55 -3 c-137 -8 -470 75 -590 146 -222 132 -398 302 -480 462 -19 37
-21 38 -107 54 -48 9 -127 22 -175 28 -49 6 -88 15 -88 19 0 11 92 97 169 159
108 86 195 139 319 194 259 116 432 145 655 110z m2962 6 c183 -21 410 -107
571 -218 83 -57 294 -237 294 -252 0 -3 -60 -16 -132 -28 -190 -31 -201 -35
-233 -85 -111 -168 -262 -316 -421 -415 -167 -104 -318 -151 -558 -173 -131
-13 -136 -12 -136 47 0 18 -7 69 -16 114 -36 192 -120 354 -258 497 -58 61
-58 59 28 161 161 190 372 312 601 348 102 15 149 16 260 4z m-1469 -476 c152
-30 326 -136 428 -259 107 -130 156 -259 163 -435 10 -227 -58 -408 -212 -565
-227 -231 -572 -279 -873 -121 -179 95 -320 294 -366 518 -20 96 -20 150 0
261 28 163 84 276 189 381 189 189 431 268 671 220z m-1089 -1076 c12 -45 121
-248 165 -305 94 -121 236 -240 350 -292 l47 -21 -42 -75 c-139 -246 -341
-434 -597 -556 -153 -73 -270 -109 -459 -141 -66 -10 -79 -16 -113 -51 -21
-22 -48 -57 -60 -78 -12 -22 -27 -38 -32 -36 -19 6 -56 219 -62 357 -14 284
43 525 174 744 85 143 265 311 412 386 60 31 193 89 203 90 5 0 11 -10 14 -22z
m1972 -8 c213 -81 426 -256 542 -445 83 -133 111 -208 156 -400 36 -158 20
-554 -29 -684 -8 -21 -11 -19 -40 38 -46 89 -57 97 -140 111 -351 57 -533 129
-758 300 -135 103 -234 218 -317 368 l-52 96 87 42 c193 94 370 291 458 512
26 66 33 82 37 82 1 0 26 -9 56 -20z"/>
<path d="M2425 5826 c-44 -19 -82 -68 -90 -116 -5 -32 -2 -50 17 -87 43 -87
117 -114 197 -71 60 32 84 77 76 143 -14 108 -109 171 -200 131z"/>
<path d="M6138 5820 c-48 -26 -78 -76 -78 -131 0 -86 53 -148 131 -156 80 -7
159 63 159 143 0 48 -41 116 -86 141 -48 28 -78 28 -126 3z"/>
<path d="M7375 2410 c-3 -5 -2 -10 4 -10 5 0 13 5 16 10 3 6 2 10 -4 10 -5 0
-13 -4 -16 -10z"/>
<path d="M1238 2403 c6 -2 18 -2 25 0 6 3 1 5 -13 5 -14 0 -19 -2 -12 -5z"/>
<path d="M1170 2390 c-8 -5 -11 -12 -8 -15 4 -4 17 0 30 9 24 17 5 23 -22 6z"/>
<path d="M1109 2343 c-13 -16 -12 -17 4 -4 16 13 21 21 13 21 -2 0 -10 -8 -17
-17z"/>
</g>
</svg>
